<svg xmlns="http://www.w3.org/2000/svg" viewBox="0 0 194.293 57.147"><defs><style>.cls-1{fill:#6a78fc;}.cls-2{fill:#fff;}.cls-3{font-size:23.765px;fill:#231f20;font-family:CircularStd-Bold, Circular Std;font-weight:700;}.cls-4{letter-spacing:-0.017em;}.cls-5{letter-spacing:-0.034em;}.cls-6{letter-spacing:-0.082em;}.cls-7{letter-spacing:-0.06em;}.cls-8{fill:none;}</style></defs><title>RBACSync_logo_Horizontal</title><g id="Layer_2" data-name="Layer 2"><g id="Layer_1-2" data-name="Layer 1"><rect class="cls-1" x="7.712" y="6.243" width="59.588" height="44.66" rx="22.33"/><path class="cls-2" d="M62.614,24.721a17.884,17.884,0,0,0-35.29,2.344h-1.5a.589.589,0,0,0-.51.884l3.711,6.427a1.084,1.084,0,0,0,1.878,0l3.711-6.427a.589.589,0,0,0-.51-.884H32.849c.377-3.515,1.746-6.825,4.773-8.687,9.767-6.007,19.951.929,19.951,10.2a12.378,12.378,0,0,1-5.626,10.367,14.187,14.187,0,0,1-7.183,2.074H42.676a17.841,17.841,0,0,0,5.012-10.932h1.5a.588.588,0,0,0,.51-.883L45.99,22.775a1.084,1.084,0,0,0-1.878,0L40.4,29.2a.589.589,0,0,0,.51.883h1.252c-.378,3.515-1.746,6.826-4.773,8.688-9.767,6.006-19.951-.93-19.951-10.2a12.435,12.435,0,0,1,9.3-12c.01,0,0-.032.008-.044a.542.542,0,0,0,.29-.19c.008,0,.027.014.031.007a21.656,21.656,0,0,1,4.272-4.565c.016-.013,0-.017.008-.028a.55.55,0,0,0-.267-.984c-.022-.013,0-.037-.062-.041l-.04,0H30.97c-.361-.025-.724-.041-1.087-.041a17.9,17.9,0,0,0-3.856,35.377,18.642,18.642,0,0,0,3.678.387v.018H45.323v-.011A17.915,17.915,0,0,0,62.614,24.721Z"/><text class="cls-3" transform="translate(73.96 38.594)">R<tspan class="cls-4" x="14.854" y="0">B</tspan><tspan class="cls-5" x="28.945" y="0">A</tspan><tspan x="45.296" y="0">C</tspan><tspan class="cls-6" x="63.452" y="0">S</tspan><tspan class="cls-7" x="75.857" y="0">ync</tspan></text><rect class="cls-2" x="145.758" y="25.727" width="5.302" height="1.116"/><rect class="cls-8" width="194.293" height="57.147"/></g></g></svg>