<svg xmlns="http://www.w3.org/2000/svg" viewBox="0 0 102.124 88.935"><defs><style>.cls-1{fill:#6a78fc;}.cls-2{fill:#fff;}.cls-3{font-size:17.503px;fill:#231f20;font-family:CircularStd-Bold, Circular Std;font-weight:700;}.cls-4{letter-spacing:-0.017em;}.cls-5{letter-spacing:-0.034em;}.cls-6{letter-spacing:0em;}.cls-7{letter-spacing:-0.082em;}.cls-8{letter-spacing:-0.06em;}.cls-9{fill:none;}</style></defs><title>RBACSync_logo_Stacked</title><g id="Layer_2" data-name="Layer 2"><g id="Layer_1-2" data-name="Layer 1"><rect class="cls-1" x="21.268" y="9.051" width="59.588" height="44.66" rx="22.33"/><path class="cls-2" d="M76.171,27.529A17.885,17.885,0,0,0,40.88,29.873h-1.5a.589.589,0,0,0-.51.884l3.711,6.427a1.085,1.085,0,0,0,1.878,0l3.711-6.427a.589.589,0,0,0-.51-.884H46.405c.378-3.515,1.746-6.825,4.773-8.687,9.767-6.007,19.951.929,19.951,10.2A12.378,12.378,0,0,1,65.5,41.751a14.194,14.194,0,0,1-7.182,2.074H56.233a17.834,17.834,0,0,0,5.011-10.932h1.5a.589.589,0,0,0,.51-.883l-3.712-6.427a1.084,1.084,0,0,0-1.878,0L53.957,32.01a.589.589,0,0,0,.51.883h1.252c-.377,3.515-1.746,6.826-4.773,8.687C41.18,47.587,31,40.651,31,31.382a12.435,12.435,0,0,1,9.3-12c.011,0,0-.032.009-.044a.539.539,0,0,0,.289-.19c.008,0,.027.014.032.007a21.627,21.627,0,0,1,4.271-4.565c.016-.013,0-.017.008-.029a.548.548,0,0,0-.267-.983c-.022-.014,0-.037-.061-.041l-.041,0h-.007c-.361-.025-.723-.041-1.087-.041a17.9,17.9,0,0,0-3.856,35.377,18.652,18.652,0,0,0,3.679.387v.018H58.879v-.011A17.916,17.916,0,0,0,76.171,27.529Z"/><text class="cls-3" transform="translate(9.59 75.473)">R<tspan class="cls-4" x="10.939" y="0">B</tspan><tspan class="cls-5" x="21.318" y="0">A</tspan><tspan class="cls-6" x="33.36" y="0">C</tspan><tspan class="cls-7" x="46.731" y="0">S</tspan><tspan class="cls-8" x="55.868" y="0">ync</tspan></text><rect class="cls-2" x="62.469" y="65.996" width="3.905" height="0.822"/><rect class="cls-9" width="102.124" height="88.935"/></g></g></svg>